<svg width="50" height="68" viewBox="0 0 50 68" fill="none" xmlns="http://www.w3.org/2000/svg">
<path d="M0 0L9.35397 4.84522V13.6608C15.747 10.1615 27.3217 6.12382 40.6963 13.6608V4.84522L50 0L45.3816 19.179L40.6963 23.8223V29.8789L44.5115 44.4145L39.4974 54.9798L39.9601 56.7295L34.6999 60.6999L34.9401 61.9785L25.0336 67.2948L15.1413 61.9785L15.3828 60.6999L10.0942 56.7295L10.5594 54.9798L5.51817 44.4145L9.35397 29.8789V23.8223L4.64334 19.179L0 0Z" fill="#EED9C3"/>
<path d="M9.35397 4.84522L0 0L4.64334 19.179L9.35397 23.8223V26.8506V29.8789L10.443 31.9314L11.5321 33.9838C14.2975 23.9704 21.6181 26.8955 24.9664 29.5424C28.2966 26.8955 35.7793 23.9704 38.5299 33.9838L40.6963 29.8789V23.8223L45.3816 19.179L50 0L40.6963 4.84522V13.6608C27.3217 6.12382 15.747 10.1615 9.35397 13.6608V9.25303V4.84522Z" fill="#E3B261"/>
<path d="M15.1413 61.9785L25.0336 67.2948L34.9401 61.9785L34.6999 60.6999L30.2882 37.214L24.9664 34.5895L19.8183 37.214L15.3828 60.6999L15.1413 61.9785Z" fill="#E6E6E6"/>
<path d="M14.603 39.7712L10.5594 54.9798L5.51817 44.4145L9.35397 29.8789L11.5321 33.9839L14.603 39.7712Z" fill="#E6E6E6"/>
<path d="M35.4756 39.7712L39.4974 54.9798L44.5115 44.4145L40.6963 29.8789L38.5299 33.9839L35.4756 39.7712Z" fill="#E6E6E6"/>
<circle cx="31.4939" cy="30.821" r="1.54778" fill="#353535"/>
<path d="M15.4105 31.8977C15.4105 30.4482 16.5855 29.2732 18.035 29.2732H21.2248C21.8046 29.2732 22.2746 29.7432 22.2746 30.323V30.323C22.2746 32.6422 20.3945 34.5222 18.0754 34.5222H16.7833C16.0251 34.5222 15.4105 33.9076 15.4105 33.1494V31.8977Z" fill="#A78347"/>
<path d="M23.0821 37.7523H26.8506V39.502C26.8506 40.5427 26.007 41.3863 24.9664 41.3863V41.3863C23.9257 41.3863 23.0821 40.5427 23.0821 39.502V37.7523Z" fill="#353535"/>
<path d="M19.8183 37.2813L14.603 39.8385L10.5594 55.0471L10.0942 56.7968L15.3828 60.7671L19.8183 37.2813Z" fill="#D5D5D5"/>
<path d="M30.2882 37.2813L35.4756 39.8385L39.4974 55.0471L39.9601 56.7968L34.6999 60.7671L30.2882 37.2813Z" fill="#D5D5D5"/>
</svg>
